<svg xmlns="http://www.w3.org/2000/svg" viewBox="0 0 1440 320"><path fill="#eff2fb" fill-opacity="1" d="M0,224L34.3,234.7C68.6,245,137,267,206,240C274.3,213,343,139,411,133.3C480,128,549,192,617,197.3C685.7,203,754,149,823,112C891.4,75,960,53,1029,64C1097.1,75,1166,117,1234,138.7C1302.9,160,1371,160,1406,160L1440,160L1440,320L1405.7,320C1371.4,320,1303,320,1234,320C1165.7,320,1097,320,1029,320C960,320,891,320,823,320C754.3,320,686,320,617,320C548.6,320,480,320,411,320C342.9,320,274,320,206,320C137.1,320,69,320,34,320L0,320Z"></path></svg>