<svg xmlns="http://www.w3.org/2000/svg" version="1.1" xmlns:xlink="http://www.w3.org/1999/xlink" xmlns:svgjs="http://svgjs.com/svgjs" width="1440" height="560" preserveAspectRatio="none" viewBox="0 0 1440 560">
    <g mask="url(&quot;#SvgjsMask1180&quot;)" fill="none">
        <rect width="1440" height="560" x="0" y="0" fill="rgba(255, 252, 252, 1)"></rect>
        <use xlink:href="#SvgjsG1182" transform="translate(0, 0)" fill="rgba(239, 242, 251, 1)"></use>
        <use xlink:href="#SvgjsG1182" transform="translate(592, 0)" fill="rgba(239, 242, 251, 1)"></use>
        <use xlink:href="#SvgjsG1182" transform="translate(1184, 0)" fill="rgba(239, 242, 251, 1)"></use>
    </g>
    <defs>
        <mask id="SvgjsMask1180">
            <rect width="1440" height="560" fill="#ffffff"></rect>
        </mask>
        <g id="SvgjsG1181">
            <path d="M13.16 1.13l4.2 9.53L13.56 12.94 7.12 4.76l4.64-2.78L10.75-1.77 11.36-1.94l0.96 3.58 0.84-0.51zM9.68 10.24s-0.63-1.37-2.6-0.19L3.95 11.94c-1.97 1.18-1.05 2.39-1.06 2.38l6.79-4.08zM4.34 16.73s0.64 1.37 2.6 0.19l3.14-1.89c1.97-1.18 1.05-2.39 1.05-2.38L4.34 16.73z m6.12-4.53a0.68 0.68 0 0 0 0.23-0.93c-0.19-0.32-0.61-0.42-0.93-0.23L3.53 14.78C3.21 14.97 3.11 15.39 3.3 15.71a0.68 0.68 0 0 0 0.93 0.23l6.23-3.74z"></path>
        </g>
        <g id="SvgjsG1182">
            <use xlink:href="#SvgjsG1181" transform="translate(0, 0) scale(1.6)" fill="rgba(239, 242, 251, 1)"></use>
            <use xlink:href="#SvgjsG1181" transform="translate(0, 59.2) scale(1.6)" fill="rgba(239, 242, 251, 1)"></use>
            <use xlink:href="#SvgjsG1181" transform="translate(0, 118.4) scale(1.6)" fill="rgba(239, 242, 251, 1)"></use>
            <use xlink:href="#SvgjsG1181" transform="translate(0, 177.60000000000002) scale(1.6)" fill="rgba(239, 242, 251, 1)"></use>
            <use xlink:href="#SvgjsG1181" transform="translate(0, 236.8) scale(1.6)" fill="rgba(239, 242, 251, 1)"></use>
            <use xlink:href="#SvgjsG1181" transform="translate(0, 296) scale(1.6)" fill="rgba(239, 242, 251, 1)"></use>
            <use xlink:href="#SvgjsG1181" transform="translate(0, 355.20000000000005) scale(1.6)" fill="rgba(239, 242, 251, 1)"></use>
            <use xlink:href="#SvgjsG1181" transform="translate(0, 414.40000000000003) scale(1.6)" fill="rgba(239, 242, 251, 1)"></use>
            <use xlink:href="#SvgjsG1181" transform="translate(0, 473.6) scale(1.6)" fill="rgba(239, 242, 251, 1)"></use>
            <use xlink:href="#SvgjsG1181" transform="translate(0, 532.8000000000001) scale(1.6)" fill="rgba(239, 242, 251, 1)"></use>
            <use xlink:href="#SvgjsG1181" transform="translate(59.2, 0) scale(1.6)" fill="rgba(239, 242, 251, 1)"></use>
            <use xlink:href="#SvgjsG1181" transform="translate(59.2, 59.2) scale(1.6)" fill="rgba(239, 242, 251, 1)"></use>
            <use xlink:href="#SvgjsG1181" transform="translate(59.2, 118.4) scale(1.6)" fill="rgba(239, 242, 251, 1)"></use>
            <use xlink:href="#SvgjsG1181" transform="translate(59.2, 177.60000000000002) scale(1.6)" fill="rgba(239, 242, 251, 1)"></use>
            <use xlink:href="#SvgjsG1181" transform="translate(59.2, 236.8) scale(1.6)" fill="rgba(239, 242, 251, 1)"></use>
            <use xlink:href="#SvgjsG1181" transform="translate(59.2, 296) scale(1.6)" fill="rgba(239, 242, 251, 1)"></use>
            <use xlink:href="#SvgjsG1181" transform="translate(59.2, 355.20000000000005) scale(1.6)" fill="rgba(239, 242, 251, 1)"></use>
            <use xlink:href="#SvgjsG1181" transform="translate(59.2, 414.40000000000003) scale(1.6)" fill="rgba(239, 242, 251, 1)"></use>
            <use xlink:href="#SvgjsG1181" transform="translate(59.2, 473.6) scale(1.6)" fill="rgba(239, 242, 251, 1)"></use>
            <use xlink:href="#SvgjsG1181" transform="translate(59.2, 532.8000000000001) scale(1.6)" fill="rgba(239, 242, 251, 1)"></use>
            <use xlink:href="#SvgjsG1181" transform="translate(118.4, 0) scale(1.6)" fill="rgba(239, 242, 251, 1)"></use>
            <use xlink:href="#SvgjsG1181" transform="translate(118.4, 59.2) scale(1.6)" fill="rgba(239, 242, 251, 1)"></use>
            <use xlink:href="#SvgjsG1181" transform="translate(118.4, 118.4) scale(1.6)" fill="rgba(239, 242, 251, 1)"></use>
            <use xlink:href="#SvgjsG1181" transform="translate(118.4, 177.60000000000002) scale(1.6)" fill="rgba(239, 242, 251, 1)"></use>
            <use xlink:href="#SvgjsG1181" transform="translate(118.4, 236.8) scale(1.6)" fill="rgba(239, 242, 251, 1)"></use>
            <use xlink:href="#SvgjsG1181" transform="translate(118.4, 296) scale(1.6)" fill="rgba(239, 242, 251, 1)"></use>
            <use xlink:href="#SvgjsG1181" transform="translate(118.4, 355.20000000000005) scale(1.6)" fill="rgba(239, 242, 251, 1)"></use>
            <use xlink:href="#SvgjsG1181" transform="translate(118.4, 414.40000000000003) scale(1.6)" fill="rgba(239, 242, 251, 1)"></use>
            <use xlink:href="#SvgjsG1181" transform="translate(118.4, 473.6) scale(1.6)" fill="rgba(239, 242, 251, 1)"></use>
            <use xlink:href="#SvgjsG1181" transform="translate(118.4, 532.8000000000001) scale(1.6)" fill="rgba(239, 242, 251, 1)"></use>
            <use xlink:href="#SvgjsG1181" transform="translate(177.60000000000002, 0) scale(1.6)" fill="rgba(239, 242, 251, 1)"></use>
            <use xlink:href="#SvgjsG1181" transform="translate(177.60000000000002, 59.2) scale(1.6)" fill="rgba(239, 242, 251, 1)"></use>
            <use xlink:href="#SvgjsG1181" transform="translate(177.60000000000002, 118.4) scale(1.6)" fill="rgba(239, 242, 251, 1)"></use>
            <use xlink:href="#SvgjsG1181" transform="translate(177.60000000000002, 177.60000000000002) scale(1.6)" fill="rgba(239, 242, 251, 1)"></use>
            <use xlink:href="#SvgjsG1181" transform="translate(177.60000000000002, 236.8) scale(1.6)" fill="rgba(239, 242, 251, 1)"></use>
            <use xlink:href="#SvgjsG1181" transform="translate(177.60000000000002, 296) scale(1.6)" fill="rgba(239, 242, 251, 1)"></use>
            <use xlink:href="#SvgjsG1181" transform="translate(177.60000000000002, 355.20000000000005) scale(1.6)" fill="rgba(239, 242, 251, 1)"></use>
            <use xlink:href="#SvgjsG1181" transform="translate(177.60000000000002, 414.40000000000003) scale(1.6)" fill="rgba(239, 242, 251, 1)"></use>
            <use xlink:href="#SvgjsG1181" transform="translate(177.60000000000002, 473.6) scale(1.6)" fill="rgba(239, 242, 251, 1)"></use>
            <use xlink:href="#SvgjsG1181" transform="translate(177.60000000000002, 532.8000000000001) scale(1.6)" fill="rgba(239, 242, 251, 1)"></use>
            <use xlink:href="#SvgjsG1181" transform="translate(236.8, 0) scale(1.6)" fill="rgba(239, 242, 251, 1)"></use>
            <use xlink:href="#SvgjsG1181" transform="translate(236.8, 59.2) scale(1.6)" fill="rgba(239, 242, 251, 1)"></use>
            <use xlink:href="#SvgjsG1181" transform="translate(236.8, 118.4) scale(1.6)" fill="rgba(239, 242, 251, 1)"></use>
            <use xlink:href="#SvgjsG1181" transform="translate(236.8, 177.60000000000002) scale(1.6)" fill="rgba(239, 242, 251, 1)"></use>
            <use xlink:href="#SvgjsG1181" transform="translate(236.8, 236.8) scale(1.6)" fill="rgba(239, 242, 251, 1)"></use>
            <use xlink:href="#SvgjsG1181" transform="translate(236.8, 296) scale(1.6)" fill="rgba(239, 242, 251, 1)"></use>
            <use xlink:href="#SvgjsG1181" transform="translate(236.8, 355.20000000000005) scale(1.6)" fill="rgba(239, 242, 251, 1)"></use>
            <use xlink:href="#SvgjsG1181" transform="translate(236.8, 414.40000000000003) scale(1.6)" fill="rgba(239, 242, 251, 1)"></use>
            <use xlink:href="#SvgjsG1181" transform="translate(236.8, 473.6) scale(1.6)" fill="rgba(239, 242, 251, 1)"></use>
            <use xlink:href="#SvgjsG1181" transform="translate(236.8, 532.8000000000001) scale(1.6)" fill="rgba(239, 242, 251, 1)"></use>
            <use xlink:href="#SvgjsG1181" transform="translate(296, 0) scale(1.6)" fill="rgba(239, 242, 251, 1)"></use>
            <use xlink:href="#SvgjsG1181" transform="translate(296, 59.2) scale(1.6)" fill="rgba(239, 242, 251, 1)"></use>
            <use xlink:href="#SvgjsG1181" transform="translate(296, 118.4) scale(1.6)" fill="rgba(239, 242, 251, 1)"></use>
            <use xlink:href="#SvgjsG1181" transform="translate(296, 177.60000000000002) scale(1.6)" fill="rgba(239, 242, 251, 1)"></use>
            <use xlink:href="#SvgjsG1181" transform="translate(296, 236.8) scale(1.6)" fill="rgba(239, 242, 251, 1)"></use>
            <use xlink:href="#SvgjsG1181" transform="translate(296, 296) scale(1.6)" fill="rgba(239, 242, 251, 1)"></use>
            <use xlink:href="#SvgjsG1181" transform="translate(296, 355.20000000000005) scale(1.6)" fill="rgba(239, 242, 251, 1)"></use>
            <use xlink:href="#SvgjsG1181" transform="translate(296, 414.40000000000003) scale(1.6)" fill="rgba(239, 242, 251, 1)"></use>
            <use xlink:href="#SvgjsG1181" transform="translate(296, 473.6) scale(1.6)" fill="rgba(239, 242, 251, 1)"></use>
            <use xlink:href="#SvgjsG1181" transform="translate(296, 532.8000000000001) scale(1.6)" fill="rgba(239, 242, 251, 1)"></use>
            <use xlink:href="#SvgjsG1181" transform="translate(355.20000000000005, 0) scale(1.6)" fill="rgba(239, 242, 251, 1)"></use>
            <use xlink:href="#SvgjsG1181" transform="translate(355.20000000000005, 59.2) scale(1.6)" fill="rgba(239, 242, 251, 1)"></use>
            <use xlink:href="#SvgjsG1181" transform="translate(355.20000000000005, 118.4) scale(1.6)" fill="rgba(239, 242, 251, 1)"></use>
            <use xlink:href="#SvgjsG1181" transform="translate(355.20000000000005, 177.60000000000002) scale(1.6)" fill="rgba(239, 242, 251, 1)"></use>
            <use xlink:href="#SvgjsG1181" transform="translate(355.20000000000005, 236.8) scale(1.6)" fill="rgba(239, 242, 251, 1)"></use>
            <use xlink:href="#SvgjsG1181" transform="translate(355.20000000000005, 296) scale(1.6)" fill="rgba(239, 242, 251, 1)"></use>
            <use xlink:href="#SvgjsG1181" transform="translate(355.20000000000005, 355.20000000000005) scale(1.6)" fill="rgba(239, 242, 251, 1)"></use>
            <use xlink:href="#SvgjsG1181" transform="translate(355.20000000000005, 414.40000000000003) scale(1.6)" fill="rgba(239, 242, 251, 1)"></use>
            <use xlink:href="#SvgjsG1181" transform="translate(355.20000000000005, 473.6) scale(1.6)" fill="rgba(239, 242, 251, 1)"></use>
            <use xlink:href="#SvgjsG1181" transform="translate(355.20000000000005, 532.8000000000001) scale(1.6)" fill="rgba(239, 242, 251, 1)"></use>
            <use xlink:href="#SvgjsG1181" transform="translate(414.40000000000003, 0) scale(1.6)" fill="rgba(239, 242, 251, 1)"></use>
            <use xlink:href="#SvgjsG1181" transform="translate(414.40000000000003, 59.2) scale(1.6)" fill="rgba(239, 242, 251, 1)"></use>
            <use xlink:href="#SvgjsG1181" transform="translate(414.40000000000003, 118.4) scale(1.6)" fill="rgba(239, 242, 251, 1)"></use>
            <use xlink:href="#SvgjsG1181" transform="translate(414.40000000000003, 177.60000000000002) scale(1.6)" fill="rgba(239, 242, 251, 1)"></use>
            <use xlink:href="#SvgjsG1181" transform="translate(414.40000000000003, 236.8) scale(1.6)" fill="rgba(239, 242, 251, 1)"></use>
            <use xlink:href="#SvgjsG1181" transform="translate(414.40000000000003, 296) scale(1.6)" fill="rgba(239, 242, 251, 1)"></use>
            <use xlink:href="#SvgjsG1181" transform="translate(414.40000000000003, 355.20000000000005) scale(1.6)" fill="rgba(239, 242, 251, 1)"></use>
            <use xlink:href="#SvgjsG1181" transform="translate(414.40000000000003, 414.40000000000003) scale(1.6)" fill="rgba(239, 242, 251, 1)"></use>
            <use xlink:href="#SvgjsG1181" transform="translate(414.40000000000003, 473.6) scale(1.6)" fill="rgba(239, 242, 251, 1)"></use>
            <use xlink:href="#SvgjsG1181" transform="translate(414.40000000000003, 532.8000000000001) scale(1.6)" fill="rgba(239, 242, 251, 1)"></use>
            <use xlink:href="#SvgjsG1181" transform="translate(473.6, 0) scale(1.6)" fill="rgba(239, 242, 251, 1)"></use>
            <use xlink:href="#SvgjsG1181" transform="translate(473.6, 59.2) scale(1.6)" fill="rgba(239, 242, 251, 1)"></use>
            <use xlink:href="#SvgjsG1181" transform="translate(473.6, 118.4) scale(1.6)" fill="rgba(239, 242, 251, 1)"></use>
            <use xlink:href="#SvgjsG1181" transform="translate(473.6, 177.60000000000002) scale(1.6)" fill="rgba(239, 242, 251, 1)"></use>
            <use xlink:href="#SvgjsG1181" transform="translate(473.6, 236.8) scale(1.6)" fill="rgba(239, 242, 251, 1)"></use>
            <use xlink:href="#SvgjsG1181" transform="translate(473.6, 296) scale(1.6)" fill="rgba(239, 242, 251, 1)"></use>
            <use xlink:href="#SvgjsG1181" transform="translate(473.6, 355.20000000000005) scale(1.6)" fill="rgba(239, 242, 251, 1)"></use>
            <use xlink:href="#SvgjsG1181" transform="translate(473.6, 414.40000000000003) scale(1.6)" fill="rgba(239, 242, 251, 1)"></use>
            <use xlink:href="#SvgjsG1181" transform="translate(473.6, 473.6) scale(1.6)" fill="rgba(239, 242, 251, 1)"></use>
            <use xlink:href="#SvgjsG1181" transform="translate(473.6, 532.8000000000001) scale(1.6)" fill="rgba(239, 242, 251, 1)"></use>
            <use xlink:href="#SvgjsG1181" transform="translate(532.8000000000001, 0) scale(1.6)" fill="rgba(239, 242, 251, 1)"></use>
            <use xlink:href="#SvgjsG1181" transform="translate(532.8000000000001, 59.2) scale(1.6)" fill="rgba(239, 242, 251, 1)"></use>
            <use xlink:href="#SvgjsG1181" transform="translate(532.8000000000001, 118.4) scale(1.6)" fill="rgba(239, 242, 251, 1)"></use>
            <use xlink:href="#SvgjsG1181" transform="translate(532.8000000000001, 177.60000000000002) scale(1.6)" fill="rgba(239, 242, 251, 1)"></use>
            <use xlink:href="#SvgjsG1181" transform="translate(532.8000000000001, 236.8) scale(1.6)" fill="rgba(239, 242, 251, 1)"></use>
            <use xlink:href="#SvgjsG1181" transform="translate(532.8000000000001, 296) scale(1.6)" fill="rgba(239, 242, 251, 1)"></use>
            <use xlink:href="#SvgjsG1181" transform="translate(532.8000000000001, 355.20000000000005) scale(1.6)" fill="rgba(239, 242, 251, 1)"></use>
            <use xlink:href="#SvgjsG1181" transform="translate(532.8000000000001, 414.40000000000003) scale(1.6)" fill="rgba(239, 242, 251, 1)"></use>
            <use xlink:href="#SvgjsG1181" transform="translate(532.8000000000001, 473.6) scale(1.6)" fill="rgba(239, 242, 251, 1)"></use>
            <use xlink:href="#SvgjsG1181" transform="translate(532.8000000000001, 532.8000000000001) scale(1.6)" fill="rgba(239, 242, 251, 1)"></use>
        </g>
    </defs>
</svg>