<svg xmlns="http://www.w3.org/2000/svg" viewBox="0 0 1440 320"><path fill="#eff2fb" fill-opacity="1" d="M0,288L34.3,277.3C68.6,267,137,245,206,202.7C274.3,160,343,96,411,101.3C480,107,549,181,617,186.7C685.7,192,754,128,823,128C891.4,128,960,192,1029,197.3C1097.1,203,1166,149,1234,128C1302.9,107,1371,117,1406,122.7L1440,128L1440,0L1405.7,0C1371.4,0,1303,0,1234,0C1165.7,0,1097,0,1029,0C960,0,891,0,823,0C754.3,0,686,0,617,0C548.6,0,480,0,411,0C342.9,0,274,0,206,0C137.1,0,69,0,34,0L0,0Z"></path></svg>